<svg width="1459" height="474" viewBox="0 0 1459 474" fill="none" xmlns="http://www.w3.org/2000/svg">
<g clip-path="url(#clip0_193_385)">
<mask id="mask0_193_385" style="mask-type:luminance" maskUnits="userSpaceOnUse" x="-786" y="-256" width="3031" height="986">
<path d="M-785.304 729.189H2244.3V-255.19H-785.304V729.189Z" fill="white"/>
</mask>
<g mask="url(#mask0_193_385)">
<path d="M301.322 93.108C285.767 75.3748 257.65 67.7722 221.681 67.7722H117.287C113.727 67.7703 110.282 69.0396 107.574 71.3516C104.866 73.6637 103.071 76.8667 102.513 80.3843L59.0647 356.151C58.8632 357.43 58.9414 358.738 59.2939 359.984C59.6463 361.23 60.2647 362.385 61.1064 363.369C61.948 364.353 62.993 365.143 64.1692 365.684C65.3455 366.226 66.6251 366.505 67.9198 366.504H132.368L148.554 263.813L148.053 267.029C148.6 263.519 150.382 260.319 153.079 258.007C155.776 255.694 159.21 254.421 162.762 254.417H193.388C253.552 254.417 300.662 229.974 314.423 159.264C314.832 157.173 315.185 155.137 315.492 153.148C319.58 127.013 315.464 109.224 301.331 93.1173" fill="#9C9C9C"/>
<path d="M1090.31 224.332C1086.37 250.207 1066.62 250.207 1047.51 250.207H1036.64L1044.27 201.896C1044.73 198.978 1047.24 196.831 1050.2 196.831H1055.19C1068.2 196.831 1080.48 196.831 1086.82 204.238C1090.6 208.671 1091.74 215.252 1090.31 224.332ZM1082 156.819H1009.93C1007.54 156.82 1005.23 157.673 1003.42 159.223C1001.6 160.773 1000.4 162.919 1000.02 165.277L970.902 350.11C970.768 350.966 970.821 351.842 971.057 352.677C971.293 353.511 971.707 354.285 972.27 354.944C972.833 355.604 973.532 356.134 974.319 356.498C975.106 356.861 975.963 357.051 976.83 357.052H1013.81C1017.26 357.052 1020.2 354.543 1020.73 351.141L1029 298.722C1029.77 293.861 1033.97 290.265 1038.89 290.265H1061.69C1109.17 290.265 1136.57 267.299 1143.72 221.748C1146.95 201.84 1143.85 186.189 1134.53 175.231C1124.28 163.186 1106.12 156.81 1082 156.81" fill="#CFCFCF"/>
<path d="M576.286 224.332C572.347 250.207 552.592 250.207 533.479 250.207H522.607L530.236 201.896C530.7 198.978 533.209 196.831 536.164 196.831H541.154C554.162 196.831 566.446 196.831 572.783 204.238C576.574 208.671 577.717 215.252 576.286 224.332ZM567.97 156.819H495.902C490.978 156.819 486.778 160.407 486.007 165.277L456.877 350.11C456.741 350.967 456.793 351.843 457.028 352.678C457.264 353.513 457.678 354.288 458.241 354.948C458.804 355.607 459.504 356.137 460.292 356.501C461.08 356.864 461.937 357.052 462.805 357.052H497.222C502.147 357.052 506.337 353.465 507.108 348.595L514.979 298.732C515.741 293.861 519.94 290.274 524.865 290.274H547.667C595.149 290.274 622.541 267.299 629.696 221.748C632.92 201.84 629.826 186.189 620.506 175.231C610.257 163.186 592.092 156.81 567.979 156.81M735.288 290.692C731.943 310.414 716.305 323.658 696.337 323.658C686.33 323.658 678.311 320.433 673.163 314.336C668.053 308.295 666.138 299.68 667.755 290.097C670.859 270.542 686.766 256.88 706.428 256.88C716.231 256.88 724.175 260.133 729.434 266.286C734.722 272.485 736.803 281.147 735.288 290.692ZM783.383 223.496H748.873C747.438 223.494 746.05 224.005 744.96 224.938C743.869 225.87 743.148 227.162 742.926 228.579L741.421 238.227L739.005 234.732C731.534 223.886 714.874 220.252 698.242 220.252C660.117 220.252 627.549 249.157 621.212 289.679C617.914 309.912 622.597 329.235 634.063 342.721C644.591 355.11 659.616 360.268 677.521 360.268C708.258 360.268 725.3 340.527 725.3 340.527L723.757 350.119C723.621 350.977 723.673 351.854 723.909 352.69C724.146 353.526 724.56 354.3 725.125 354.96C725.689 355.62 726.39 356.15 727.179 356.513C727.968 356.876 728.826 357.063 729.695 357.062H760.767C765.691 357.062 769.891 353.483 770.662 348.604L789.321 230.448C789.455 229.589 789.401 228.712 789.164 227.876C788.927 227.04 788.511 226.266 787.946 225.606C787.381 224.946 786.68 224.416 785.89 224.054C785.101 223.691 784.242 223.504 783.374 223.505" fill="#9C9C9C"/>
<path d="M1249.31 290.692C1245.97 310.414 1230.33 323.658 1210.36 323.658C1200.35 323.658 1192.34 320.433 1187.19 314.336C1182.08 308.295 1180.16 299.68 1181.78 290.097C1184.88 270.542 1200.78 256.88 1220.45 256.88C1230.26 256.88 1238.2 260.133 1243.46 266.286C1248.75 272.485 1250.83 281.147 1249.31 290.692ZM1297.41 223.496H1262.9C1261.46 223.494 1260.08 224.005 1258.98 224.938C1257.89 225.87 1257.17 227.162 1256.95 228.579L1255.45 238.227L1253.03 234.732C1245.56 223.886 1228.9 220.252 1212.27 220.252C1174.15 220.252 1141.58 249.157 1135.24 289.679C1131.94 309.912 1136.63 329.235 1148.1 342.721C1158.62 355.11 1173.65 360.268 1191.56 360.268C1222.3 360.268 1239.34 340.527 1239.34 340.527L1237.8 350.119C1237.66 350.976 1237.71 351.852 1237.94 352.688C1238.18 353.524 1238.59 354.299 1239.15 354.96C1239.72 355.62 1240.42 356.15 1241.21 356.513C1241.99 356.876 1242.85 357.063 1243.72 357.062H1274.78C1279.71 357.062 1283.91 353.483 1284.69 348.604L1303.35 230.448C1303.48 229.589 1303.43 228.712 1303.19 227.876C1302.95 227.04 1302.54 226.266 1301.97 225.606C1301.41 224.946 1300.7 224.416 1299.92 224.054C1299.13 223.691 1298.27 223.504 1297.4 223.505" fill="#CFCFCF"/>
<path d="M967.185 223.505H932.489C929.172 223.505 926.078 225.15 924.219 227.901L876.366 298.388L856.082 230.652C855.463 228.586 854.196 226.774 852.467 225.485C850.738 224.196 848.64 223.499 846.484 223.496H812.392C811.436 223.496 810.494 223.724 809.644 224.162C808.794 224.6 808.061 225.234 807.505 226.011C806.949 226.789 806.586 227.689 806.447 228.635C806.308 229.581 806.397 230.546 806.705 231.451L844.895 343.594L808.973 394.294C808.338 395.194 807.962 396.251 807.887 397.35C807.812 398.448 808.04 399.547 808.546 400.525C809.052 401.503 809.817 402.323 810.758 402.896C811.698 403.469 812.778 403.773 813.879 403.774H848.537C851.808 403.774 854.884 402.166 856.761 399.471L972.11 232.938C972.736 232.038 973.104 230.984 973.173 229.889C973.243 228.795 973.011 227.702 972.504 226.73C971.996 225.758 971.232 224.943 970.294 224.375C969.357 223.806 968.281 223.505 967.185 223.505Z" fill="#9C9C9C"/>
<path d="M1338.08 161.903L1308.49 350.119C1308.36 350.976 1308.41 351.853 1308.65 352.688C1308.89 353.523 1309.3 354.297 1309.86 354.957C1310.43 355.617 1311.13 356.146 1311.92 356.51C1312.71 356.873 1313.56 357.061 1314.43 357.062H1344.17C1349.1 357.062 1353.3 353.474 1354.07 348.604L1383.24 163.762C1383.37 162.904 1383.32 162.027 1383.08 161.191C1382.85 160.355 1382.43 159.581 1381.87 158.92C1381.31 158.26 1380.6 157.731 1379.82 157.368C1379.03 157.005 1378.17 156.818 1377.3 156.819H1344.02C1342.58 156.816 1341.2 157.326 1340.11 158.256C1339.02 159.187 1338.3 160.487 1338.08 161.903Z" fill="#CFCFCF"/>
<path d="M301.322 93.108C285.767 75.3748 257.65 67.7722 221.681 67.7722H117.287C113.727 67.7703 110.282 69.0396 107.574 71.3516C104.866 73.6637 103.071 76.8667 102.513 80.3843L59.0647 356.151C58.8632 357.43 58.9414 358.738 59.2939 359.984C59.6463 361.23 60.2647 362.385 61.1064 363.369C61.948 364.353 62.993 365.143 64.1692 365.684C65.3455 366.226 66.6251 366.505 67.9198 366.504H132.368L148.554 263.813L148.053 267.029C148.6 263.519 150.382 260.319 153.079 258.007C155.776 255.694 159.21 254.421 162.762 254.417H193.388C253.552 254.417 300.662 229.974 314.423 159.264C314.832 157.173 315.185 155.137 315.492 153.148C319.58 127.013 315.464 109.224 301.331 93.1173" fill="#9C9C9C"/>
<path d="M165.94 153.492C166.428 150.418 167.995 147.62 170.361 145.598C172.726 143.576 175.735 142.463 178.846 142.46H260.689C270.38 142.46 279.421 143.092 287.681 144.412C292.198 145.138 296.666 146.138 301.062 147.404C306.054 148.808 310.884 150.733 315.473 153.148C319.58 127.004 315.455 109.224 301.322 93.108C285.758 75.3841 257.65 67.7815 221.681 67.7815H117.278C113.721 67.784 110.281 69.0553 107.576 71.367C104.872 73.6787 103.08 76.8792 102.523 80.3937L59.0554 356.132C58.8526 357.411 58.9294 358.719 59.2807 359.966C59.6319 361.213 60.2492 362.368 61.09 363.353C61.9308 364.338 62.9752 365.129 64.151 365.672C65.3269 366.214 66.6064 366.495 67.9012 366.495H132.359L148.545 263.795L165.94 153.492Z" fill="#9C9C9C"/>
<path d="M315.483 153.139C315.164 155.184 314.807 157.223 314.414 159.254C300.653 229.955 253.543 254.408 193.378 254.408H162.743C159.192 254.41 155.758 255.683 153.062 257.996C150.367 260.309 148.587 263.509 148.043 267.02L132.359 366.486L127.899 394.703C127.721 395.823 127.789 396.968 128.097 398.06C128.405 399.152 128.946 400.163 129.682 401.026C130.419 401.888 131.334 402.58 132.364 403.055C133.394 403.529 134.514 403.774 135.648 403.774H189.978C196.408 403.774 201.871 399.09 202.884 392.742L203.414 389.972L213.653 325.062L214.304 321.474C214.79 318.398 216.359 315.597 218.726 313.575C221.094 311.552 224.106 310.441 227.219 310.442H235.35C287.979 310.442 329.188 289.066 341.23 227.204C346.248 201.366 343.646 179.776 330.359 164.617C326.14 159.917 321.098 156.028 315.483 153.139Z" fill="#CFCFCF"/>
<path d="M301.071 147.404C298.971 146.782 296.806 146.224 294.576 145.732C292.346 145.239 290.041 144.802 287.681 144.43C279.412 143.083 270.38 142.451 260.679 142.451H178.846C175.731 142.447 172.718 143.558 170.351 145.583C167.983 147.608 166.419 150.414 165.94 153.492L148.545 263.814L148.043 267.02C148.587 263.509 150.367 260.309 153.062 257.996C155.758 255.683 159.192 254.41 162.743 254.408H193.378C253.543 254.408 300.653 229.964 314.414 159.254C314.823 157.163 315.167 155.137 315.483 153.139C311.848 151.237 308.063 149.639 304.165 148.362C303.152 148.027 302.121 147.72 301.071 147.404Z" fill="#838383"/>
</g>
</g>
<defs>
<clipPath id="clip0_193_385">
<rect width="1459" height="474" fill="white"/>
</clipPath>
</defs>
</svg>
